<svg width="27" height="16" viewBox="0 0 27 16" fill="none" xmlns="http://www.w3.org/2000/svg">
<path d="M8.18 0.68C8.78 0.68 9.38667 0.773333 10 0.96C10.6267 1.13333 11.2133 1.39333 11.76 1.74H11.78L11.74 0.819999H13.14L12.9 5.46H11.78C11.6733 4.3 11.32 3.41333 10.72 2.8C10.1333 2.17333 9.34 1.86 8.34 1.86C7.63333 1.86 6.99333 2.02 6.42 2.34C5.86 2.64667 5.36667 3.08 4.94 3.64C4.52667 4.18667 4.2 4.82 3.96 5.54C3.73333 6.26 3.59333 7.02667 3.54 7.84C3.48667 9.02667 3.62667 10.08 3.96 11C4.29333 11.92 4.79333 12.64 5.46 13.16C6.12667 13.68 6.92 13.9467 7.84 13.96C8.66667 13.9733 9.50667 13.7867 10.36 13.4C11.2267 13 11.9867 12.3867 12.64 11.56L13.32 12.24C12.6533 13.0933 11.9533 13.74 11.22 14.18C10.5 14.62 9.8 14.92 9.12 15.08C8.44 15.24 7.82 15.32 7.26 15.32C6.24667 15.32 5.33333 15.14 4.52 14.78C3.70667 14.4067 3.01333 13.9 2.44 13.26C1.88 12.6067 1.46 11.8533 1.18 11C0.9 10.1333 0.786667 9.2 0.84 8.2C0.893333 7.28 1.08667 6.37333 1.42 5.48C1.75333 4.58667 2.22667 3.78 2.84 3.06C3.45333 2.34 4.20667 1.76667 5.1 1.34C5.99333 0.9 7.02 0.68 8.18 0.68ZM20.5291 0.96C21.7424 0.96 22.7557 1.10667 23.5691 1.4C24.3824 1.69333 24.9824 2.14 25.3691 2.74C25.7691 3.32667 25.9357 4.09333 25.8691 5.04C25.8291 5.58667 25.6757 6.12 25.4091 6.64C25.1424 7.14667 24.7424 7.6 24.2091 8C23.6757 8.4 22.9757 8.71333 22.1091 8.94C22.2557 9.04667 22.3824 9.15333 22.4891 9.26C22.6091 9.35333 22.7157 9.45333 22.8091 9.56C22.9157 9.65333 23.0157 9.76667 23.1091 9.9C23.2157 10.0333 23.3224 10.1867 23.4291 10.36L24.4091 12.02C24.6624 12.4333 24.8891 12.78 25.0891 13.06C25.3024 13.3267 25.5224 13.5333 25.7491 13.68C25.9891 13.8133 26.2757 13.8867 26.6091 13.9L26.5491 15H23.5691C23.3291 14.8 23.0824 14.5267 22.8291 14.18C22.5891 13.8333 22.3491 13.44 22.1091 13L20.8091 10.7C20.6491 10.42 20.4957 10.16 20.3491 9.92C20.2024 9.66667 20.0424 9.45333 19.8691 9.28C19.7357 9.29333 19.5957 9.3 19.4491 9.3C19.3024 9.3 19.1624 9.3 19.0291 9.3C18.9091 9.28667 18.7957 9.28 18.6891 9.28L18.5491 12C18.5357 12.3733 18.5091 12.7133 18.4691 13.02C18.4424 13.3267 18.4157 13.5667 18.3891 13.74C18.5357 13.7267 18.7091 13.72 18.9091 13.72C19.1224 13.7067 19.3224 13.7 19.5091 13.7C19.7091 13.6867 19.8691 13.68 19.9891 13.68L19.9291 15H14.5291L14.5891 13.9C14.9624 13.8867 15.2491 13.8267 15.4491 13.72C15.6624 13.6 15.8157 13.4 15.9091 13.12C16.0157 12.8267 16.0757 12.4267 16.0891 11.92L16.5091 3.94C16.5357 3.60667 16.5624 3.28667 16.5891 2.98C16.6291 2.67333 16.6624 2.43333 16.6891 2.26C16.4624 2.27333 16.2024 2.28667 15.9091 2.3C15.6157 2.3 15.3757 2.30667 15.1891 2.32L15.2691 0.999999C16.1491 0.986666 17.0224 0.979999 17.8891 0.979999C18.7691 0.966666 19.6491 0.96 20.5291 0.96ZM20.4291 2.14C20.0824 2.14 19.8024 2.19333 19.5891 2.3C19.3891 2.40667 19.2424 2.59333 19.1491 2.86C19.0557 3.12667 18.9957 3.49333 18.9691 3.96L18.7491 8.02C18.9224 8.03333 19.0957 8.04667 19.2691 8.06C19.4424 8.07333 19.6224 8.08 19.8091 8.08C20.5557 8.06667 21.1757 7.95333 21.6691 7.74C22.1757 7.52667 22.5624 7.19333 22.8291 6.74C23.0957 6.28667 23.2491 5.70667 23.2891 5C23.3157 4.4 23.2424 3.91333 23.0691 3.54C22.9091 3.16667 22.6891 2.88 22.4091 2.68C22.1291 2.46667 21.8091 2.32667 21.4491 2.26C21.1024 2.18 20.7624 2.14 20.4291 2.14Z" fill="black"/>
</svg>
