<svg width="482" height="428" viewBox="0 0 482 428" fill="none" xmlns="http://www.w3.org/2000/svg">
<path d="M262.564 158.008C275.674 139.445 274.201 122.727 275.099 105.097L274.711 105.047C274.754 104.688 274.805 104.329 274.848 103.97C274.948 103.948 275.049 103.934 275.157 103.941C275.803 103.977 276.284 104.515 276.256 105.154C276.134 107.596 276.055 110.059 275.976 112.443C275.473 127.854 274.999 142.411 263.512 158.676" fill="#432E1A"/>
<path d="M261.616 157.34C272.7 141.642 273.167 127.423 273.655 112.371C273.734 109.98 273.813 107.503 273.935 105.039C273.964 104.508 274.345 104.077 274.841 103.969C274.797 104.329 274.747 104.688 274.704 105.047L275.092 105.097C274.194 122.727 275.667 139.445 262.557 158.008" fill="#432E1A"/>
<path d="M185.286 142.367C182.995 134.547 183.196 125.944 183.39 117.614C183.404 116.881 183.426 116.142 183.44 115.416C183.634 106.002 184.381 96.4867 185.653 87.1368C187.578 73.0257 190.379 58.1822 197.835 45.2201C201.765 38.3836 212.504 22.9368 227.215 27.224C227.826 27.4035 228.472 27.0516 228.652 26.434C228.688 26.3191 228.702 26.1971 228.695 26.0822C229.895 25.4071 231.223 24.9763 232.596 24.7896C232.481 25.0337 232.445 25.321 232.524 25.601C232.696 26.2186 233.328 26.5777 233.946 26.4053C234.628 26.2186 235.304 26.0678 235.957 25.9601C245.109 24.3946 254.361 29.5507 263.462 41.2991C270.006 49.7442 273.756 61.1408 274.625 75.1801C274.977 80.882 274.697 85.9232 274.46 90.3612C274.273 93.7291 274.101 96.9176 274.244 99.8044C274.244 99.8763 274.244 99.9481 274.252 100.02C274.28 100.573 274.704 101.011 275.236 101.083C275.114 102.045 274.977 103 274.855 103.962C274.359 104.07 273.971 104.501 273.95 105.032C273.828 107.496 273.749 109.973 273.67 112.364C273.181 127.416 272.714 141.635 261.63 157.333" fill="#35251D"/>
<path d="M179.08 150.705C179.353 150.403 175.366 156.629 175.653 156.335C175.826 155.89 176.02 155.444 176.242 154.999C176.53 154.432 176.875 153.699 176.149 153.154C175.546 152.701 174.964 152.888 174.289 153.197C172.227 154.116 170.187 155.085 168.14 156.04C164.024 157.958 159.8 159.66 155.835 161.893C149.621 165.405 145.785 170.791 143.451 177.412C141.698 182.374 140.642 187.48 139.873 192.679C139.033 198.345 138.322 204.004 138.192 209.734C138.149 211.544 138.358 211.795 140.089 211.752C142.74 211.688 145.39 211.767 148.034 211.953C152.301 212.248 156.56 212.657 160.755 213.519C163.995 214.187 167.048 215.415 170.094 216.657C171.257 217.131 171.932 217.088 172.306 216.406C172.155 217.095 172.019 217.792 171.94 218.495C171.451 222.768 170.747 227.012 170.23 231.278C170.029 232.951 169.619 234.689 170.295 236.334C171.624 239.572 172.514 242.94 173.391 246.315C174.619 251.026 175.697 255.773 175.89 260.664C176.034 264.254 176.099 267.845 176.846 271.371C177.37 273.855 178.024 276.319 178.29 278.854C178.649 282.286 178.218 285.64 177.126 288.922C176.803 289.891 176.702 290.882 177.859 291.536C180.811 293.209 183.878 294.609 187.068 295.772C188.483 296.289 188.935 295.593 189 294.516C189.18 291.478 189.632 288.476 190.027 285.467C190.106 282.293 190.588 279.155 190.954 276.017C191.802 268.821 192.491 261.611 193.375 254.423C193.913 249.999 195.76 248.226 199.94 248.089C206.269 247.881 212.597 248.039 218.933 247.752C230.16 247.256 241.402 248.039 252.644 247.35C256.983 247.084 261.343 247.271 265.696 247.314C269.906 247.35 274.115 247.192 278.324 247.127C279.431 247.113 280.408 246.955 280.53 245.59C281.004 240.341 282.469 235.271 283.396 230.1C284.085 226.251 284.366 222.416 283.913 218.503C283.669 216.391 283.087 214.294 283.36 212.119C283.446 211.458 283.439 210.632 282.555 210.309C281.837 208.226 282.239 206.065 282.146 203.939C282.081 202.517 282.182 201.088 282.268 199.666C282.304 199.106 282.606 198.618 283.274 198.625C283.935 198.632 284.222 199.106 284.272 199.681C284.337 200.449 284.315 201.225 284.337 201.993C284.394 204.212 284.2 206.445 284.56 208.973C286.233 207.106 288.137 206.797 290.134 206.769C291.405 207.831 292.828 207.185 294.056 206.862C295.291 206.539 294.781 205.11 294.738 204.255C294.523 199.688 295.026 195.2 295.895 190.747C296.721 186.503 297.712 182.288 299.149 178.202C299.68 176.694 299.214 175.861 297.906 175.365C296.541 174.848 295.177 174.36 293.711 174.058C289.387 173.168 285.005 172.335 281.04 170.338C278.36 168.988 275.638 168.177 272.657 167.976C271.522 167.897 270.322 167.681 269.266 167.042C267.779 166.144 266.846 164.794 267.37 163.724C268.067 162.31 267.722 161.311 266.881 160.091C265.366 157.893 265.66 156.601 267.736 154.755C268.534 154.051 268.383 153.441 267.837 152.615C266.587 150.726 264.468 151.215 262.758 150.611C260.244 149.721 258.728 150.748 256.918 152.716C251.028 159.121 243.306 162.382 234.937 164.213C233.968 164.507 232.983 164.744 231.978 164.916C224.708 166.116 217.467 166.267 210.291 164.32C210.054 164.256 209.817 164.234 209.587 164.241C208.962 164.277 208.208 164.012 207.842 164.787C207.519 165.491 208.05 165.907 208.409 166.439C208.697 166.87 198.942 144.536 199.222 144.974" fill="white"/>
<path d="M173.032 212.844C173.032 212.844 172.996 212.822 172.96 212.844C172.744 212.952 173.082 212.628 173.032 212.844Z" fill="#FEFEFE"/>
<path d="M172.909 213.497C172.852 213.82 172.794 214.136 172.723 214.452C172.773 214.129 172.83 213.813 172.909 213.497Z" fill="#FEFEFE"/>
<path d="M387.288 211.278C387.073 209.914 386.685 208.593 386.088 207.343C381.642 197.928 375.227 190.252 366.27 184.758C360.128 180.995 353.584 178.051 347.083 175.013C336.358 169.994 325.698 164.845 315.714 158.432C311.713 155.861 307.913 152.881 305.858 148.479C302.913 142.181 299.508 136.149 295.974 130.181C294.006 126.863 292.49 123.366 292.31 119.424C292.26 118.339 291.872 117.334 291.47 116.328C290.644 114.275 288.582 113.693 286.851 115.072C286.039 115.718 285.458 116.537 285.07 117.506C284.344 119.301 283.942 121.154 283.92 123.1C283.884 126.677 284.696 130.102 285.687 133.499C286.054 134.763 285.759 135.272 284.351 135.107C281.974 134.827 279.574 134.913 277.175 134.949C273.691 135.007 270.789 136.364 268.404 138.849C267.528 139.761 266.379 140.931 266.802 142.102C267.729 144.651 266.709 146.583 265.775 148.802C265.208 150.152 264.77 150.396 263.527 150.152C260.467 149.563 257.435 148.874 254.497 147.818C251.057 146.583 247.975 144.78 245.885 141.664C244.017 138.877 243.32 135.725 243.593 132.429C243.593 132.35 243.615 132.278 243.629 132.206C243.198 131.948 242.76 131.675 242.336 131.387C236.539 134.662 229.952 137.053 223.322 135.057C217.496 133.305 213.244 128.982 209.681 124.256C209.645 124.256 209.616 124.256 209.58 124.256C209.386 124.335 209.192 124.422 208.998 124.493C208.496 125.477 207.497 126.174 205.953 126.124C205.716 126.116 205.479 126.102 205.234 126.095C205.249 126.712 205.119 127.33 204.854 127.883C205.364 128.228 205.479 128.881 205.285 129.879C204.925 131.696 204.336 133.448 203.632 135.172C202.239 138.612 200.307 141.793 198.942 145.247C197.8 148.141 197.606 151.006 198.755 153.972C200.357 158.087 202.555 161.807 205.5 165.089C206.147 165.9 207.224 165.994 207.662 165.347C208.338 164.356 208.948 164.694 209.767 164.816C210.536 164.931 211.261 165.24 212.044 165.247C212.482 165.247 213.043 165.627 213.33 165.039C213.603 164.471 213.186 164.026 212.856 163.609C212.533 163.2 212.015 163.2 211.556 163.085C211.031 162.949 210.521 162.769 209.982 162.712C207.734 162.453 206.139 161.311 204.99 159.358C204.107 157.865 203.316 156.321 202.462 154.82C200.58 151.502 200.673 148.263 202.426 144.917C205.026 139.94 207.648 134.956 208.804 129.377C209.006 128.393 209.559 128.12 210.255 128.989C211.311 130.317 212.669 131.308 213.94 132.386C218.473 136.213 223.624 138.497 229.672 138.317C233.091 138.21 236.187 136.938 239.24 135.517C240.792 134.791 241.18 134.942 241.467 136.544C242.631 143.057 246.596 147.186 252.587 149.491C255.977 150.798 256.559 151.265 253.118 154.073C247.472 158.676 240.899 161.254 233.838 162.719C231.288 162.87 228.968 163.997 226.454 164.428C223.818 164.888 221.239 164.945 218.624 164.665C217.367 164.529 216.117 164.536 214.867 164.55C214.443 164.55 213.933 164.608 213.897 165.132C213.854 165.793 214.472 165.57 214.824 165.635C217.123 166.058 219.457 166.08 221.77 166.116C226.31 166.195 230.8 165.649 235.246 164.751C244.34 163.1 252.192 159.157 258.427 152.22C258.937 151.653 259.289 150.734 260.187 150.877C262.133 151.193 264.087 151.538 265.948 152.148C266.465 152.321 268.016 152.967 266.975 154.145C264.82 156.586 264.604 158.123 266.407 160.794C266.86 161.462 267.255 161.958 266.817 162.863C266.012 164.521 266.673 165.864 268.031 166.949C269.503 168.126 271.256 168.464 273.059 168.615C275.279 168.809 277.484 169.153 279.452 170.223C283.022 172.162 286.873 173.204 290.795 174.065C292.425 174.424 294.085 174.733 295.679 175.229C299.02 176.263 299.005 176.299 297.992 179.573C295.672 187.085 294.034 194.718 293.941 202.625C293.898 206.474 293.927 206.474 290.112 206.747C288.977 207.128 287.835 207.472 286.715 207.889C286.241 208.061 285.501 208.248 285.774 208.937C285.989 209.483 286.607 209.16 287.052 209.031C287.627 208.865 288.187 208.657 288.762 208.492C294.2 206.941 299.587 207.896 304.931 208.988C315.505 211.142 325.655 214.819 335.942 217.993C347.507 221.562 359.201 224.126 371.391 223.652C374.818 223.522 378.201 223.041 381.398 221.741C385.923 219.91 388.042 216.075 387.288 211.264V211.278Z" fill="#303030"/>
<path d="M177.579 154.339C177.995 153.879 178.505 153.599 179.058 153.448C179.54 152.601 180.057 151.768 180.624 150.963C180.782 150.734 180.933 150.504 181.091 150.274C180.667 150.037 180.294 149.714 179.978 149.34C179.698 149.405 179.396 149.448 179.073 149.448C178.936 149.448 178.8 149.441 178.67 149.427C178.189 149.922 177.665 150.353 177.04 150.726C171.559 153.951 165.676 156.349 159.9 158.949C152.085 162.468 146.195 167.76 143.199 176.004C141.863 179.674 140.764 183.394 140.031 187.207C138.286 196.27 137.517 205.454 136.971 214.654C135.98 231.45 133.365 248.075 131.871 264.814C131.009 274.53 130.025 284.239 130.937 294.006C131.182 296.641 131.713 299.212 133.25 301.467C133.509 301.841 134.084 302.164 133.832 302.681C133.545 303.262 132.877 303.025 132.367 303.047C128.948 303.169 125.535 303.406 122.238 304.361C116.664 305.977 111.586 308.39 108.669 313.84C106.888 317.172 106.083 320.785 105.825 324.512C105.501 329.144 106.421 333.388 109.596 337.036C111.686 339.441 114.006 341.574 116.319 343.743C116.7 344.095 117.49 344.31 117.318 344.878C117.102 345.581 116.291 345.294 115.73 345.294C108.008 345.337 100.293 345.359 92.5713 345.373C67.1352 345.431 41.6991 345.481 16.2702 345.538C15.7314 345.538 15.1927 345.56 14.6611 345.632C14.302 345.675 13.9428 345.826 13.9787 346.292C14.0074 346.702 14.266 346.967 14.6539 346.996C15.3076 347.046 15.9685 347.046 16.6294 347.046C50.4412 346.974 84.253 346.895 118.065 346.809C119.286 346.809 120.371 346.953 121.412 347.75C126.548 351.685 132.008 355.14 137.661 358.278C138.157 358.551 138.767 358.737 138.975 359.405C138.422 359.8 137.805 359.585 137.237 359.606C129.522 359.937 122.468 365.136 120.579 371.692C117.124 383.663 127.547 396.072 137.826 397.394C143.831 398.169 149.873 398.313 155.921 398.133C160.712 397.99 165.489 398.018 170.237 398.873C178.275 400.316 186.321 400.101 194.366 398.931C205.565 397.3 216.613 394.859 227.754 392.934C228.451 392.812 229.227 392.381 229.844 392.841C231.389 393.983 233.019 393.645 234.672 393.336C236.554 392.992 238.428 392.582 240.325 392.317C249.16 391.074 257.91 389.365 266.601 387.376C267.995 387.06 269.281 387.189 270.646 387.512C283.08 390.406 295.564 393.028 308.444 392.266C315.369 391.857 322.179 393.107 329.003 393.66C336.509 394.263 342.507 392.439 346.975 386.471C350.703 381.495 352.126 375.994 349.317 369.969C348.376 367.951 347.313 366.019 345.927 364.281C345.108 363.261 345.057 362.644 346.408 362.012C349.274 360.669 352.054 359.132 354.906 357.753C356.601 356.935 358.196 356.001 360.272 356.001C395.405 356.001 430.532 355.929 465.665 355.872C466.082 355.872 466.506 355.865 466.922 355.829C467.368 355.793 467.791 355.628 467.806 355.118C467.82 354.587 467.389 354.429 466.951 354.4C466.297 354.364 465.636 354.357 464.976 354.357C431.401 354.421 397.826 354.486 364.251 354.536C363.533 354.536 362.764 354.73 361.881 354.235C362.498 353.825 362.922 353.502 363.382 353.244C371.427 348.734 378.611 343.154 384.903 336.382C390.729 330.113 393.724 323.054 391.684 314.436C390.485 309.374 387.812 305.115 384.278 301.309C380.744 297.489 376.456 295.507 371.276 295.399C369.545 295.363 367.807 295.263 366.076 295.248C357.801 295.184 349.583 295.974 341.372 296.921C339.814 297.101 339.49 296.663 339.778 295.198C340.367 292.203 340.812 289.187 341.344 286.178C343.355 274.753 345.402 263.328 347.385 251.895C348.074 247.917 346.537 245.849 342.651 245.842C334.455 245.842 326.259 246.035 318.063 246.15C317.646 246.509 317.15 246.359 316.683 246.359C306.433 246.272 296.175 246.473 285.924 246.545C285.206 246.545 284.502 246.574 283.784 246.667C281.377 246.976 281.155 246.682 281.198 244.319C281.212 243.522 281.916 242.509 280.731 241.698C280.264 242.912 280.206 244.053 280.192 245.152C280.185 246.466 279.589 246.804 278.418 246.746C277.283 246.689 276.148 246.71 275.013 246.746C274.481 246.761 273.634 246.481 273.655 247.407C273.677 248.233 274.438 248.168 275.035 248.104C280.458 247.508 285.903 247.888 291.341 247.838C294.796 247.809 298.265 247.529 301.699 248.312C302.561 248.506 303.531 248.549 304.364 248.218C306.663 247.314 309.062 247.464 311.44 247.457C318.134 247.443 324.829 247.414 331.524 247.472C334.555 247.5 337.536 248.463 340.604 248.125C344.296 247.824 345.46 249.016 344.885 252.692C343.649 260.549 342.198 268.369 340.819 276.204C338.664 288.455 336.588 300.72 334.405 312.964C334.038 315.032 333.033 316.339 331.028 316.914C329.247 317.424 327.494 318.034 325.727 318.594C317.969 321.043 310.168 323.384 302.798 326.903C295.608 330.336 288.812 334.486 281.873 338.371C280.314 339.247 278.712 339.7 276.924 339.729C271.78 339.8 266.644 339.75 261.501 339.987C254.038 340.339 246.553 340.016 239.082 340.404C234.722 340.626 230.333 340.195 225.98 340.547C220.262 341.007 214.623 341.337 209.422 338.242C209.221 338.12 208.977 338.063 208.761 337.962C202.153 335.011 195.688 331.75 189.158 328.634C187.628 327.901 186.938 326.788 187.118 325.043C187.448 321.891 187.7 318.731 188.16 315.6C188.346 311.65 189.575 307.744 188.598 303.744C188.461 303.191 188.67 302.408 187.829 302.372C187.118 302.343 186.694 302.839 186.493 303.564C186.163 304.778 186.091 306.027 185.94 307.27C185.832 307.858 185.753 308.447 185.71 309.051C185.509 311.794 185.193 314.523 184.884 317.259C184.611 319.657 183.842 320.16 181.551 319.607C181.084 319.492 180.624 319.363 180.165 319.219C172.687 316.878 165.202 314.551 157.925 311.614C151.489 309.022 145.074 306.386 138.968 303.054C135.958 301.41 134.041 299.169 133.559 295.737C133.272 293.661 132.884 291.6 132.92 289.496C132.992 285.195 132.87 280.9 133.222 276.591C133.847 269.03 134.472 261.468 135.298 253.92C136.059 246.969 136.928 240.032 137.647 233.073C138.228 227.429 138.839 221.784 139.356 216.133C139.564 213.849 140.204 213.469 142.495 213.332C144.837 213.196 147.157 213.569 149.47 213.749C155.375 214.208 161.265 214.869 166.825 217.174C169.849 218.431 170.165 218.883 169.849 222.158C169.821 222.452 169.785 222.754 169.734 223.048C168.133 232.966 167.041 242.955 165.202 252.836C164.196 258.243 163.585 263.73 161.833 268.979C161.107 270.775 161.941 272.62 161.682 274.437C161.603 274.969 161.984 275.306 162.537 275.407C163.068 275.507 163.492 275.342 163.779 274.897C164.182 274.286 164.354 273.59 164.548 272.893C165.755 268.563 166.401 264.118 167.314 259.73C168.628 253.403 169.533 247.019 170.352 241.066C170.374 241.949 170.826 243.192 171.207 244.456C172.708 249.389 173.779 254.437 174.138 259.572C174.562 265.719 175.079 271.837 176.436 277.863C176.997 280.347 176.824 282.868 176.228 285.338C175.74 287.363 174.921 287.686 173.168 286.609C170.367 284.886 167.687 282.968 165.065 280.986C163.779 280.017 162.17 279.507 161.129 278.2C160.303 277.719 159.441 277.302 158.629 276.8C155.964 275.17 153.127 273.934 150.117 273.123C149.14 272.857 148.263 273.065 147.904 274.064C147.516 275.134 148.242 275.723 149.14 276.089C150.526 276.649 151.934 277.137 153.299 277.748C157.803 279.78 161.675 282.803 165.69 285.597C171.875 289.905 178.124 294.092 185.214 296.814C185.94 297.094 186.644 297.431 187.111 298.099C189.122 299.406 189.553 299.234 190.113 296.929C190.537 294.308 190.588 291.643 190.997 289.029C191.054 288.498 191.148 287.938 190.983 287.442C190.681 286.581 190.774 285.388 189.424 285.266C189.072 288.11 188.691 290.954 188.389 293.805C188.253 295.047 187.736 295.32 186.608 294.868C184.051 293.841 181.594 292.606 179.116 291.406C177.787 290.76 177.471 289.97 177.952 288.548C179.382 284.311 179.439 279.981 178.505 275.622C177.729 272.003 176.652 268.412 176.688 264.671C176.774 256.053 174.655 247.852 172.191 239.702C171.343 236.908 170.295 234.158 170.877 231.113C171.279 229.002 171.437 226.84 171.782 224.714C172.493 220.284 173.269 215.867 173.987 211.444C174.095 210.797 174.547 209.806 173.549 209.655C172.73 209.533 172.809 210.589 172.651 211.171C172.313 212.442 172.033 213.727 171.818 215.027C171.631 216.154 171.236 216.384 170.151 215.86C165.963 213.849 161.51 212.693 156.927 212.032C151.525 211.25 146.087 211.049 140.635 211.084C139.514 211.092 138.645 211.041 138.753 209.49C139.471 199.034 140.498 188.636 143.76 178.582C146.195 171.078 150.483 165.146 157.745 161.678C163.241 159.049 168.765 156.471 174.281 153.886C174.684 153.699 175.179 153.276 175.596 153.699C176.02 154.123 175.517 154.568 175.359 154.971C175.064 155.703 175.682 155.689 175.467 156.414" fill="#303030"/>
<path d="M189.898 289.367C189.733 288.017 190.113 286.602 189.453 285.309C189.747 279.213 190.781 273.195 191.342 267.127C191.737 262.839 192.268 258.567 192.728 254.287C193.253 249.425 195.271 247.479 200.17 247.407C216.376 247.163 232.581 246.976 248.787 246.782C258.355 246.667 267.923 246.552 277.491 246.517C279.251 246.517 279.962 246.057 280.084 244.14C280.393 239.357 281.622 234.711 282.678 230.043C283.848 224.88 283.69 219.752 282.656 214.589C282.376 213.203 282.555 211.731 282.527 210.302C282.527 207.199 282.505 204.09 282.52 200.988C282.52 200.456 282.577 199.911 282.692 199.393C282.728 199.235 283.044 199.034 283.223 199.034C283.403 199.034 283.698 199.243 283.741 199.415C283.841 199.81 283.863 200.241 283.848 200.657C283.619 207.25 284.287 213.799 284.854 220.355C285.299 225.461 284.43 230.352 282.9 235.177C282.168 234.668 282.555 234.021 282.699 233.418C283.769 228.959 284.682 224.485 284.136 219.846C284.064 219.257 283.985 218.682 283.827 218.122C284.603 221.856 284.344 225.569 283.59 229.267C283.044 231.96 282.455 234.653 282.06 237.375C281.995 237.82 281.765 238.265 282.168 238.668C281.945 240.441 281.708 242.215 281.514 243.989C281.255 246.344 281.399 246.438 283.69 246.416C294.911 246.301 306.131 246.208 317.351 246.114C317.588 246.114 317.825 246.158 318.063 246.186C317.229 246.631 316.324 246.574 315.426 246.581C309.981 246.588 304.529 246.43 299.091 246.646C294.006 246.847 288.934 246.94 283.848 246.94C280.867 246.94 280.846 246.904 281.025 243.96C281.047 243.608 281.025 243.256 281.025 242.682C280.142 244.118 281.083 246.258 279.201 246.768C277.743 247.156 276.141 246.983 274.589 247.299C275.588 247.299 276.586 247.299 277.585 247.299C286.205 247.299 294.832 247.558 303.437 247.213C314.988 246.754 326.532 247.113 338.075 246.919C339.088 246.904 340.108 246.962 341.128 246.983C341.279 247.701 340.848 247.946 340.259 248.068C339.727 248.183 339.189 248.19 338.65 248.183C324.65 247.953 310.657 248.491 296.663 248.628C282.426 248.771 268.182 248.599 253.959 249.001C242.473 249.324 230.986 248.937 219.508 249.324C213.165 249.54 206.829 249.518 200.493 249.655C196.945 249.734 195.479 250.947 194.991 254.516C194.158 260.613 193.425 266.732 192.865 272.864C192.405 277.863 191.873 282.861 191.112 287.823C191.004 288.505 191.126 289.532 189.876 289.374L189.898 289.367Z" fill="#3B3B3B"/>
<path d="M301.857 103.309C301.756 103.596 301.656 104.005 301.462 104.372C300.212 106.813 298.783 109.133 296.936 111.179C296.599 111.553 296.24 112.206 295.651 111.711C295.105 111.251 295.55 110.727 295.888 110.318C297.691 108.171 299.206 105.837 300.356 103.273C300.55 102.842 300.758 102.347 301.34 102.397C301.778 102.433 301.871 102.806 301.843 103.309H301.857Z" fill="#444444"/>
<path d="M282.182 238.66L281.298 240.333C282.685 232.125 285.249 224.075 283.532 215.587C284.804 220.485 284.804 225.346 283.669 230.222C283.295 231.845 282.828 233.461 282.9 235.163C282.656 236.326 282.419 237.497 282.175 238.66H282.182Z" fill="#303030"/>
<path d="M289.753 107.732C289.732 108.235 289.732 108.953 289.653 109.657C289.617 110.009 289.423 110.382 288.984 110.361C288.518 110.339 288.439 109.93 288.453 109.578C288.532 107 288.216 104.465 287.569 101.966C287.462 101.549 287.505 101.068 288.022 100.953C288.546 100.846 288.733 101.298 288.862 101.7C289.473 103.589 289.681 105.542 289.753 107.725V107.732Z" fill="#3C3C3C"/>
<path d="M301.311 116.199C301.074 116.199 300.693 116.149 300.6 115.725C300.507 115.301 300.815 115.036 301.167 114.942C303.466 114.354 305.772 113.786 308.085 113.24C308.387 113.169 308.695 113.305 308.775 113.65C308.911 114.246 308.502 114.533 308.049 114.713C306.612 115.302 305.082 115.567 303.559 115.833C302.855 115.955 302.152 116.063 301.318 116.192L301.311 116.199Z" fill="#505050"/>
<path d="M284.868 114.095C284.926 114.418 284.818 114.691 284.545 114.863C284.179 115.086 283.813 114.978 283.604 114.655C282.498 112.96 281.284 111.359 279.711 110.052C279.431 109.815 279.388 109.413 279.639 109.083C279.847 108.81 280.142 108.81 280.444 108.874C281.392 109.083 284.782 113.09 284.861 114.102L284.868 114.095Z" fill="#484848"/>
<path d="M301.993 126.59C300.765 126.31 299.558 125.951 298.502 125.24C298.165 125.01 297.806 124.68 298.05 124.199C298.301 123.703 298.739 123.854 299.142 124.005C300.205 124.407 301.268 124.788 302.324 125.197C302.762 125.369 303.337 125.535 303.186 126.145C303.035 126.755 302.46 126.633 301.986 126.59H301.993Z" fill="#3F3F3F"/>
<path d="M230.972 165.218C225.879 166.037 217.942 166.03 214.939 165.118C217.848 165.211 220.757 165.613 223.674 165.426C227.416 165.182 231.188 165.06 234.743 163.631C234.391 162.59 233.537 162.82 232.811 162.942C226.131 164.048 219.436 164.141 212.726 163.229C211.951 163.121 211.161 163.1 210.701 163.947C211.268 164.227 211.836 164.5 212.655 164.902C211.01 165.067 209.695 164.17 208.381 164.543C207.375 164.83 206.657 164.514 205.902 164.019C206.376 164.701 206.829 165.405 207.325 166.073C207.475 166.274 207.619 166.482 207.763 166.69C208.955 167.401 209.939 168.32 210.837 169.326C210.299 168.299 209.695 167.301 209.041 166.317C208.812 165.965 208.223 165.592 208.646 165.089C208.948 164.737 209.444 165.003 209.839 165.089C213.229 165.864 216.677 166.259 220.147 166.331C225.233 166.432 230.304 166.259 235.225 164.751C233.774 164.622 232.373 164.988 230.965 165.218H230.972Z" fill="#393939"/>
<path d="M189.898 289.367C190.882 284.922 191.047 280.369 191.593 275.859C192.47 268.62 193.202 261.367 194.057 254.121C194.538 250.028 196.032 248.743 200.177 248.7C228.336 248.412 256.502 248.147 284.66 247.845C302.834 247.651 321.015 247.421 339.189 247.192C339.835 247.184 340.489 247.041 341.135 246.962C341.315 246.983 341.487 247.019 341.667 247.026C345.74 247.285 346.645 248.333 345.948 252.362C342.507 272.218 338.901 292.045 335.669 311.93C335.051 315.751 333.406 317.323 329.886 318.343C321.568 320.77 313.25 323.277 305.291 326.774C298.38 329.811 291.887 333.668 285.407 337.495C281.966 339.528 278.547 340.605 274.467 340.641C255.747 340.82 237.028 341.194 218.308 341.725C214.371 341.84 211.254 340.045 207.971 338.608C201.018 335.564 194.215 332.181 187.427 328.77C186.199 328.153 185.811 327.42 185.969 326.092C186.378 322.709 186.673 319.312 187.017 315.923C187.448 311.715 188.203 307.499 188.246 303.291C188.267 301.015 188.82 298.954 189.151 296.799C189.51 294.329 189.826 291.852 189.884 289.345L189.898 289.367Z" fill="#B8C4CD"/>
<path d="M390.959 319.133C390.894 326.242 387.654 331.19 383.459 335.765C375.529 344.411 365.954 350.73 355.523 355.901C347.22 360.015 339.074 364.446 330.332 367.635C314.241 373.509 297.842 378.356 281.248 382.564C265.984 386.435 250.539 389.437 234.988 391.871C232.631 392.238 232.552 392.108 232.962 389.731C233.795 384.827 234.399 379.893 233.745 374.916C233.335 371.778 232.373 368.841 230.045 366.543C229.112 365.617 229.435 365.222 230.555 364.884C239.348 362.256 247.817 358.823 256.071 354.823C263.879 351.032 271.479 346.867 279.028 342.587C287.196 337.955 295.198 333.007 303.646 328.906C310.06 325.797 316.877 323.686 323.687 321.589C329.743 319.729 335.848 317.97 341.473 314.917C343.721 313.697 345.611 312.088 347.191 310.092C347.485 309.718 347.715 309.287 347.909 308.857C348.103 308.426 348.333 307.88 347.78 307.585C347.198 307.277 346.896 307.808 346.688 308.225C344.978 311.6 341.782 313.187 338.679 314.86C338.082 315.183 337.364 315.779 336.696 315.262C336.107 314.803 336.509 314.02 336.61 313.395C337.321 309.208 338.09 305.029 338.758 300.835C339.002 299.313 339.677 298.552 341.265 298.365C351.199 297.209 361.148 296.541 371.169 296.778C377.167 296.921 381.455 299.866 384.975 304.311C388.545 308.828 390.894 313.847 390.952 319.111L390.959 319.133Z" fill="#E0D0C4"/>
<path d="M252.623 354.852C248.837 356.87 244.85 358.45 240.864 360.008C236.345 361.775 231.726 363.24 227.028 364.446C225.642 364.805 224.651 365.667 224.241 366.996C223.839 368.317 222.977 368.855 221.734 369.236C208.812 373.222 195.594 374.184 182.162 373.43C172.076 372.863 162.996 369.229 154.068 364.834C147.093 361.401 140.031 358.141 133.401 354.055C126.254 349.653 119.379 344.899 113.381 338.982C112.067 337.682 110.817 336.282 109.768 334.766C105.824 329.043 106.622 322.903 108.798 316.907C111.787 308.677 118.912 306.164 126.685 304.806C127.978 304.584 129.321 304.634 130.607 304.397C135.513 303.492 139.521 305.812 143.645 307.851C152.243 312.102 161.201 315.456 170.316 318.408C174.583 319.786 178.9 321.021 183.189 322.328C184.812 322.824 185.638 325.301 184.604 326.608C184.008 327.37 183.39 326.774 182.851 326.501C176.005 322.996 168.736 320.598 161.402 318.372C156.309 316.828 151.166 315.435 146.453 312.835C144.974 312.023 143.63 311.04 142.251 310.099C141.784 309.783 141.224 309.129 140.699 309.74C140.132 310.415 140.965 310.774 141.375 311.126C144.147 313.481 147.366 315.054 150.713 316.382C155.389 318.242 160.245 319.557 165.065 320.978C174.188 323.671 182.6 327.973 191.062 332.188C206.772 340.009 222.718 347.233 239.743 351.779C243.27 352.719 246.847 353.459 250.468 353.962C251.164 354.062 251.854 354.22 252.544 354.349C252.565 354.515 252.594 354.673 252.615 354.838L252.623 354.852Z" fill="#E0D0C4"/>
<path d="M341.746 174.072C349.066 177.469 356.457 180.715 363.511 184.672C373.187 190.101 380.155 197.95 384.903 207.874C385.385 208.887 385.701 210.007 385.923 211.113C386.821 215.573 385.241 218.481 381.089 220.327C375.285 222.905 369.172 222.617 363.073 222.301C354.037 221.827 345.381 219.436 336.775 216.865C329.326 214.639 321.92 212.255 314.471 210.029C308.904 208.37 303.258 206.991 297.439 206.603C295.924 206.503 295.449 205.943 295.385 204.42C295.033 195.544 297.138 187.092 299.616 178.69C300.011 177.347 300.578 177.376 301.656 177.986C307.137 181.103 312.108 184.916 317.021 188.844C324.736 195.006 331.589 202.165 339.383 208.226C344.432 212.154 350.086 214.991 356.091 217.145C356.429 217.267 356.766 217.404 357.118 217.468C357.564 217.547 358.16 217.784 358.311 217.124C358.433 216.614 357.894 216.485 357.513 216.327C355.035 215.271 352.535 214.28 350.093 213.153C343.377 210.057 337.766 205.426 332.393 200.442C324.8 193.411 317.086 186.517 308.552 180.622C303.057 176.823 297.317 173.57 290.507 172.658C286.865 172.169 283.439 170.848 280.171 169.189C277.937 168.055 275.573 167.516 273.095 167.387C271.888 167.322 270.703 167.107 269.647 166.511C268.799 166.037 267.959 165.419 268.016 164.328C268.074 163.222 268.857 162.554 269.798 162.03C270.617 161.577 272.391 161.606 271.924 160.414C271.429 159.143 270.243 160.536 269.374 160.73C267.765 161.089 267.413 159.782 266.946 158.87C266.336 157.685 266.336 156.378 267.65 155.538C268.555 154.956 269.554 154.54 270.502 154.022C271.077 153.707 271.658 153.383 272.168 152.981C272.664 152.593 273.469 152.098 272.987 151.416C272.413 150.597 271.838 151.43 271.371 151.803C270.301 152.68 269.324 153.218 268.16 151.868C266.989 150.511 266.781 149.111 267.801 147.832C268.095 147.459 268.447 147.114 268.821 146.834C269.489 146.331 270.193 145.872 270.883 145.405C271.874 144.737 272.894 144.112 273.849 143.394C274.388 142.992 275.343 142.482 274.79 141.735C274.137 140.859 273.584 141.915 273.038 142.245C272.068 142.834 271.12 143.459 270.186 144.105C269.353 144.68 268.864 144.529 268.476 143.552C267.966 142.274 268.253 141.226 269.101 140.235C271.4 137.563 274.402 136.472 277.829 136.271C282.103 136.012 286.305 136.644 290.515 137.204C291.283 137.305 292.052 137.427 292.828 137.506C293.259 137.549 293.74 137.506 293.805 136.974C293.862 136.479 293.46 136.227 293.022 136.156C291.606 135.933 290.184 135.732 288.755 135.545C287.964 135.445 287.462 135.157 287.282 134.274C286.772 131.754 286.068 129.269 285.63 126.741C285.077 123.567 285.127 120.422 286.729 117.477C287.311 116.414 288.015 115.51 289.351 115.725C290.55 115.919 290.716 117.046 290.78 117.958C291.29 125.039 294.803 130.892 298.409 136.701C300.277 139.71 301.9 142.856 303.236 146.109C305.513 151.653 309.428 155.71 314.248 159.013C321.108 163.724 328.514 167.487 335.942 171.193C336.581 171.516 337.213 171.853 337.853 172.184C339.117 172.873 340.431 173.462 341.739 174.072H341.746Z" fill="#EDC6AB"/>
<path d="M186.802 307.923C186.392 311.779 185.933 315.636 185.595 319.499C185.451 321.18 184.877 321.582 183.21 321.101C169.734 317.23 156.553 312.562 143.846 306.616C141.195 305.374 138.602 304.002 136.138 302.394C134.759 301.489 133.897 300.304 133.387 298.767C132.238 295.306 132.022 291.729 132 288.132C131.914 275.299 133.459 262.581 134.845 249.856C136.117 238.201 137.682 226.582 138.372 214.869C138.48 212.995 139.105 212.478 140.936 212.506C148.012 212.6 155.045 213.002 161.969 214.589C164.728 215.221 167.292 216.384 169.914 217.39C170.884 217.763 171.315 218.366 171.157 219.451C168.765 235.96 166.782 252.542 163.068 268.836C163.04 268.951 162.982 269.058 162.932 269.166C162.558 270.401 162.242 271.644 162.048 272.922C161.912 273.834 161.682 274.538 162.709 275.363C163.7 276.161 162.91 277.561 162.436 278.595C161.969 279.615 161.136 279.241 160.382 278.875C157.451 277.166 154.491 275.514 151.266 274.401C150.763 274.229 150.232 274.114 149.7 274.006C149.327 273.934 148.953 274.006 148.809 274.401C148.623 274.933 148.982 275.155 149.42 275.292C150.785 275.715 152.15 276.139 153.457 276.757C159.513 279.593 164.641 283.852 170.137 287.543C175.711 291.284 181.493 294.595 187.844 296.835C188.418 298.128 188.447 299.535 188.145 300.828C187.599 303.119 187.132 305.395 187.096 307.751C187.096 307.808 186.895 307.858 186.788 307.909L186.802 307.923Z" fill="#EDC6AB"/>
<path d="M209.659 124.264H209.623C210.679 125.8 211.879 127.251 213.236 128.594C213.761 129.111 214.292 129.599 214.831 130.073C212.928 128.335 211.225 126.339 209.659 124.264Z" fill="#EBEBEB"/>
<path d="M223.3 135.064C222.546 134.834 221.821 134.561 221.117 134.253C225.225 136.127 229.751 136.551 234.851 134.834C235.656 134.561 236.424 134.238 237.171 133.894C232.746 135.667 228.034 136.486 223.3 135.064Z" fill="#EBEBEB"/>
<path d="M179.777 398.708C173.326 398.306 166.998 396.711 160.504 396.805C156.797 396.855 153.091 396.992 149.384 396.913C141.296 396.74 134.644 393.516 129.86 386.952C126.534 382.399 125.902 377.243 127.762 371.936C128.991 368.432 132.08 366.773 135.283 365.48C141.935 362.795 148.4 363.685 154.721 366.708C158.6 368.561 162.515 370.342 166.581 371.793C171.94 373.703 177.485 374.478 183.11 374.794C184.812 374.888 185.803 375.362 185.839 377.243C185.861 378.399 186.486 379.419 187.089 380.381C189.517 384.202 188.935 387.914 186.622 391.491C185.38 393.415 184.087 395.275 184.202 397.717C184.238 398.543 183.634 398.686 182.995 398.701C181.917 398.722 180.847 398.701 179.769 398.701L179.777 398.708Z" fill="#E1AF90"/>
<path d="M234.751 163.631C228.013 164.737 221.246 165.204 214.436 164.378C213.193 164.227 211.951 164.091 210.708 163.947C210.543 163.875 210.385 163.739 210.22 163.732C206.412 163.617 204.624 160.96 203.043 158.058C202.411 156.902 201.93 155.674 201.298 154.518C199.495 151.222 199.782 148.041 201.485 144.766C203.324 141.211 205.213 137.678 206.534 133.872C207.303 131.653 207.942 129.427 208.187 127.093C208.23 126.698 208.079 126.145 208.531 125.966C209.142 125.714 209.307 126.382 209.587 126.712C211.534 128.989 213.581 131.136 216.031 132.903C223.782 138.49 232.078 138.856 240.21 133.886C242.042 132.766 242.077 132.781 242.228 134.856C242.688 141.218 246.057 145.513 251.725 148.127C253.24 148.823 254.821 149.427 256.415 149.908C257.83 150.331 257.816 150.827 256.897 151.818C252.637 156.385 247.443 159.473 241.611 161.527C239.355 162.324 237.042 162.934 234.758 163.631H234.751Z" fill="#EDC6AB"/>
<path d="M232.452 379.627C232.33 383.139 232.1 386.292 231.633 389.43C231.489 390.414 231.101 391.081 230.01 391.254C216.081 393.48 202.368 396.999 188.275 398.234C185.617 398.471 184.941 397.537 186.098 395.067C186.63 393.94 187.348 392.905 187.994 391.843C190.408 387.893 190.681 383.886 188.361 379.8C188.181 379.491 187.994 379.182 187.829 378.866C186.299 375.908 186.795 375.082 190.063 375.06C202.648 374.974 214.975 373.301 226.921 369.193C230.089 368.102 230.584 368.389 231.647 371.62C232.538 374.335 232.452 377.164 232.445 379.635L232.452 379.627Z" fill="#EDC6AB"/>
<path d="M272.915 386.076C275.631 385.394 278.324 384.719 281.011 384.037C299.4 379.405 317.581 374.083 335.274 367.218C338.772 365.861 338.75 365.811 341.02 368.82C344.957 374.04 344.899 379.591 340.597 384.532C335.978 389.825 330.303 392.812 323.019 391.814C316.604 390.938 310.168 390.729 303.696 390.88C293.496 391.117 283.64 388.769 273.742 386.758C273.461 386.701 273.152 386.658 272.915 386.076Z" fill="#E1AF90"/>
<path d="M160.396 278.882C162.228 278.473 162.472 276.843 162.07 275.658C161.258 273.245 162.012 271.241 162.946 269.173C162.932 270.559 162.515 271.881 162.257 273.223C162.163 273.726 161.876 274.466 162.515 274.645C163.363 274.882 163.334 273.992 163.478 273.475C164.95 267.988 165.906 262.387 166.926 256.8C167.967 251.098 168.808 245.36 169.742 239.644C169.806 239.249 169.763 238.789 170.173 238.524C170.489 238.502 170.589 238.725 170.654 238.94C173.197 247.428 175.366 255.981 175.431 264.936C175.459 268.764 176.329 272.527 177.155 276.261C178.031 280.218 177.744 284.081 176.681 287.959C176.314 289.281 175.74 289.474 174.669 288.749C171.516 286.595 168.348 284.448 165.202 282.286C163.585 281.173 161.998 280.01 160.396 278.875V278.882Z" fill="white"/>
<path d="M219.888 342.96C238.759 342.594 257.622 342.228 276.802 341.854C275.932 343.054 274.898 343.441 274 343.922C268.835 346.694 263.635 349.402 258.455 352.145C257.213 352.806 255.963 353.078 254.505 352.949C244.764 352.087 235.498 349.301 226.339 346.077C224.155 345.308 222.007 344.454 219.838 343.635C219.852 343.413 219.867 343.183 219.881 342.96H219.888Z" fill="#E0D0C4"/>
<path d="M135.197 395.247C132.812 394.823 130.966 393.365 129.163 391.922C125.011 388.575 122.289 384.274 121.384 379.003C120.091 371.505 124.824 364.346 132.403 361.89C136.045 360.712 139.586 360.662 143.12 362.242C139.945 362.543 136.878 363.182 133.969 364.504C126.433 367.922 124.745 372.733 125.729 380.324C126.484 386.141 130.083 390.263 134.565 393.688C135.111 394.105 135.571 394.737 136.332 394.859C136.224 395.764 135.628 395.268 135.204 395.247H135.197Z" fill="#4F3F38"/>
<path d="M332.659 392.209C337.127 389.925 340.905 387.419 343.283 383.34C346.343 378.091 345.891 372.755 342.127 367.979C341.832 367.606 341.344 367.268 341.265 366.859C341.142 366.206 339.275 366.134 340.64 365.021C342.407 363.584 343.506 363.441 344.432 364.654C346.25 367.039 347.888 369.509 348.75 372.446C351.393 381.48 343.111 392.496 333.672 392.431C333.456 392.431 333.234 392.338 332.659 392.216V392.209Z" fill="#4F3F38"/>
<path d="M186.802 307.923C187.154 304.232 187.765 300.569 187.865 296.85C188.102 297.158 188.339 297.467 188.612 297.826C188.799 297.482 188.986 297.144 189.165 296.814C188.77 303.219 188.002 309.589 187.032 315.93C186.967 311.772 187.887 307.686 187.994 303.248C187.276 304.928 187.75 306.602 186.802 307.916V307.923Z" fill="#4B4B4B"/>
<path d="M228.264 367.01C227.876 367.821 227.036 367.75 226.339 367.936C225.98 368.03 225.57 367.893 225.606 367.434C225.671 366.593 226.238 366.206 227.028 366.191C227.574 366.177 228.063 366.364 228.264 367.017V367.01Z" fill="#656565"/>
<path d="M135.197 395.247C135.571 395.117 135.951 394.988 136.325 394.859C137.086 394.837 137.668 395.203 138.343 395.828C137.058 396.345 136.145 395.677 135.19 395.247H135.197Z" fill="#4F3F38"/>
<path d="M341.746 174.072C340.288 173.778 338.988 173.168 337.86 172.184C339.275 172.572 340.625 173.074 341.746 174.072Z" fill="#9D9D9D"/>
<path d="M282.972 205.72V201.605C283.022 201.605 283.073 201.605 283.13 201.605V205.72C283.08 205.72 283.03 205.72 282.972 205.72Z" fill="#303030"/>
<path d="M264.439 296.548C264.403 293.022 267.025 290.099 270.279 290.035C273.411 289.977 275.947 292.692 276.004 296.16C276.062 299.614 273.325 302.566 270.078 302.566C266.989 302.566 264.475 299.88 264.439 296.548Z" fill="#3A3A3A"/>
<path d="M274.596 296.081C274.639 298.788 272.556 301.115 270.085 301.13C267.729 301.144 265.94 299.126 265.94 296.462C265.94 293.675 267.93 291.521 270.516 291.514C272.714 291.507 274.56 293.568 274.596 296.088V296.081Z" fill="#FBFBFB"/>
<path d="M206.017 137.614C206.657 133.57 207.073 129.456 207.26 125.355C209.889 127.976 213.05 130.325 216.685 132.364C219.867 134.138 222.819 135.158 225.728 135.495H225.793C232.782 136.278 240.971 132.895 245.461 129.14C245.956 128.73 246.014 127.998 245.612 127.51C245.202 127.014 244.47 126.949 243.974 127.359C239.254 131.308 231.561 133.807 226.044 133.197H225.994C223.394 132.895 220.722 131.955 217.812 130.339C213.696 128.034 210.234 125.312 207.511 122.246C207.49 122.217 207.468 122.203 207.447 122.174C204.918 119.323 203.137 116.249 202.131 113.039C201.068 109.621 200.299 106.074 199.854 102.476C199.603 100.458 199.459 98.4185 199.423 96.4293C199.409 95.7901 198.884 95.2803 198.245 95.2946C197.606 95.309 197.096 95.8332 197.11 96.4724C197.132 97.7793 197.203 99.0935 197.318 100.415C197.017 100.314 196.729 100.192 196.456 100.034C193.339 98.3251 191.902 93.5855 191.428 91.6322C190.753 88.8675 190.99 82.2033 193.353 80.0418C193.813 79.6181 194.61 79.1154 196.112 79.6252C196.277 79.6827 196.449 79.7545 196.622 79.8335C197.211 80.092 197.893 79.8263 198.144 79.2375C198.302 78.8856 198.267 78.4978 198.087 78.189C198.719 77.9305 199.229 77.3488 199.639 76.7671C200.127 76.0777 200.544 75.3453 200.91 74.584C201.477 74.1101 202.052 73.5859 202.648 72.9826C205.938 69.6218 208.452 65.2413 209.659 62.9361C210.442 61.4353 211.038 60.0708 211.606 58.7423C212.461 56.7818 213.265 54.9363 214.573 52.904C216.598 49.7514 221.074 46.7138 224.586 47.1016C224.636 47.1016 224.694 47.1159 224.744 47.1231H224.83C224.83 47.1231 224.873 47.1375 224.881 47.1375C225.52 47.2093 226.102 46.7497 226.166 46.1177C226.181 46.01 226.174 45.9023 226.166 45.8018C226.633 45.7012 227.122 45.6581 227.596 45.6653C228.465 45.6725 229.327 45.8161 230.182 46.0028C230.182 46.0387 230.182 46.0818 230.182 46.1249C230.254 46.7569 230.828 47.2165 231.461 47.1446C238.78 46.3188 243.212 51.6688 246.581 57.0188C249.354 61.4137 251.042 66.972 251.502 73.1191C251.488 73.1119 251.473 73.0975 251.466 73.0904C248.873 71.611 245.605 71.2448 242.738 72.1137C242.128 72.3004 241.783 72.9467 241.97 73.5643C242.157 74.1747 242.803 74.5194 243.414 74.3327C245.684 73.6505 248.27 73.9377 250.324 75.1083C250.468 75.1873 250.618 75.2375 250.769 75.2519C251.071 75.2878 251.373 75.2016 251.61 75.0149C251.667 76.7743 251.638 78.5768 251.502 80.4008C251.337 82.5767 250.978 84.8173 250.633 86.9788C249.915 91.4814 249.167 96.142 250.058 100.767C250.532 103.223 251.488 105.722 252.903 108.178C253.607 109.406 254.311 110.397 255.051 111.194C255.065 111.208 255.072 111.223 255.086 111.237C254.936 113.248 254.634 115.223 254.203 117.104C252.177 126.181 247.343 133.061 240.598 136.479C240.023 136.766 239.8 137.463 240.088 138.037C240.275 138.396 240.612 138.626 240.993 138.662" fill="#EDC6AB"/>
<path d="M248.155 88.853C248.514 88.0056 248.55 86.8854 248.241 85.9877C248.111 85.6071 247.896 85.2983 247.623 85.0685C247.35 84.8387 247.012 84.6951 246.632 84.6448C245.842 84.5587 245.051 84.9608 244.606 85.6646C244.527 85.7866 244.47 85.9087 244.419 86.038C244.182 86.6484 243.988 87.6609 244.24 88.5658C244.498 89.4562 245.188 90.081 246.028 90.1744C246.057 90.1744 246.086 90.1744 246.122 90.1744C246.984 90.2318 247.781 89.7076 248.155 88.8458V88.853Z" fill="#FDDBCA"/>
<path d="M231.942 101.284C234.363 99.6536 235.138 96.0415 233.608 93.564C233.429 93.2624 233.235 93.0038 233.041 92.7525C232.811 92.4509 232.596 92.1636 232.473 91.8979C232.2 91.3091 232.208 90.5407 232.258 89.8585C232.402 87.8765 232.89 85.9447 233.723 84.1207C233.982 83.539 233.723 82.8496 233.141 82.5839C232.567 82.3182 231.877 82.5767 231.611 83.1584C230.67 85.2338 230.11 87.4312 229.945 89.6933C229.88 90.6628 229.88 91.8046 230.376 92.8746C230.613 93.3701 230.922 93.7866 231.195 94.1457C231.36 94.3611 231.511 94.5693 231.64 94.7704C232.531 96.2138 232.064 98.4041 230.649 99.3592C230.117 99.7183 229.981 100.436 230.333 100.968C230.534 101.262 230.843 101.435 231.166 101.47C231.432 101.499 231.705 101.442 231.942 101.284Z" fill="#FDDBCA"/>
<path d="M219.737 70.8354C220.01 70.2538 219.752 69.5715 219.17 69.2987C216.447 68.0419 213.172 67.9558 210.392 69.0689C209.796 69.3058 209.508 69.9809 209.745 70.5697C209.911 70.9791 210.284 71.2448 210.694 71.2879C210.88 71.3094 211.067 71.2879 211.254 71.216C213.452 70.3328 216.052 70.4046 218.2 71.3956C218.782 71.6685 219.464 71.4099 219.737 70.8283V70.8354Z" fill="#FDDBCA"/>
<path d="M218.006 85.7651C218.365 84.9249 218.401 83.8118 218.092 82.8998C217.834 82.1458 217.23 81.6431 216.483 81.5569C215.693 81.4708 214.889 81.8729 214.451 82.5839C214.436 82.5982 214.436 82.6198 214.422 82.6341C214.379 82.7203 214.328 82.8137 214.278 82.9429C214.041 83.5533 213.847 84.5802 214.099 85.4851C214.357 86.3755 215.047 87.0003 215.887 87.0937C215.916 87.0937 215.945 87.0937 215.981 87.0937C216.843 87.1511 217.64 86.6269 218.013 85.7651H218.006Z" fill="#FDDBCA"/>
<path d="M197.383 91.4096C197.943 91.0936 198.13 90.3826 197.814 89.8297C197.16 88.6951 196.068 87.8118 194.819 87.4168C194.208 87.2229 193.554 87.5604 193.36 88.1708C193.166 88.7812 193.504 89.4347 194.115 89.6286C194.811 89.8512 195.436 90.3611 195.795 90.9859C195.989 91.3162 196.32 91.5173 196.672 91.5604C196.909 91.5891 197.153 91.5388 197.376 91.4167L197.383 91.4096Z" fill="#FDDBCA"/>
<path d="M232.308 31.9636C232.66 31.4322 232.517 30.7069 231.985 30.355C231.453 30.0031 230.728 30.1468 230.376 30.6782C228.796 33.0551 227.855 37.5721 227.969 40.3082C227.991 40.8898 228.436 41.3494 228.997 41.4141C229.054 41.4141 229.112 41.4213 229.176 41.4141C229.816 41.3853 230.311 40.8468 230.282 40.2076C230.182 37.8953 231.03 33.881 232.301 31.9636H232.308Z" fill="#E19E73"/>
<path d="M257.313 110.167C257.536 110.368 257.759 110.547 257.989 110.705C259.289 111.61 260.833 111.905 262.033 111.474C262.636 111.258 263.297 111.574 263.512 112.178C263.728 112.781 263.412 113.442 262.809 113.657C261.968 113.959 261.056 114.052 260.136 113.944C259.159 113.836 258.182 113.506 257.256 112.975C257.313 112.429 257.371 111.883 257.407 111.345C257.435 110.986 257.299 110.662 257.062 110.433L257.313 110.167Z" fill="#432E1A"/>
<path d="M255.711 111.854L255.898 110.404C255.841 110.339 255.783 110.282 255.726 110.21C255.905 110.117 256.114 110.074 256.329 110.088C256.609 110.117 256.868 110.239 257.055 110.425C257.292 110.655 257.428 110.978 257.399 111.337C257.356 111.883 257.306 112.429 257.249 112.968C257.047 112.86 256.861 112.738 256.667 112.601C256.336 112.379 256.02 112.127 255.704 111.84L255.711 111.854Z" fill="#432E1A"/>
<path d="M255.905 110.404L255.719 111.854C255.503 111.661 255.302 111.46 255.094 111.237V111.165C255.137 110.741 255.388 110.39 255.74 110.217C255.79 110.282 255.855 110.346 255.913 110.411L255.905 110.404Z" fill="#432E1A"/>
<path d="M250.058 100.767C249.167 96.142 249.914 91.4814 250.633 86.9788C250.978 84.8101 251.344 82.5767 251.502 80.4008C251.638 78.5768 251.674 76.7743 251.61 75.0149C251.725 74.9216 251.825 74.8067 251.897 74.6774C252.005 74.4835 252.062 74.2681 252.048 74.0598L252.723 74.0239C252.838 76.1927 252.809 78.3614 252.651 80.4942C252.148 87.2158 249.914 93.9374 251.186 100.558C251.667 103.043 252.637 105.42 253.894 107.61C254.418 108.53 255.015 109.434 255.719 110.224C255.367 110.397 255.115 110.756 255.079 111.172V111.244C255.079 111.244 255.043 111.215 255.036 111.201C254.296 110.404 253.585 109.42 252.888 108.185C251.48 105.722 250.525 103.23 250.044 100.774L250.058 100.767Z" fill="#432E1A"/>
<path d="M252.055 74.0526C252.062 74.2608 252.012 74.4763 251.904 74.6702C251.825 74.8066 251.725 74.9215 251.617 75.0077C251.603 74.3685 251.559 73.7438 251.516 73.119C251.854 73.3273 252.048 73.6792 252.062 74.0526H252.055Z" fill="#432E1A"/>
<path d="M251.509 73.119C251.559 73.7438 251.595 74.3758 251.61 75.0077C251.373 75.1944 251.064 75.2806 250.769 75.2447C250.618 75.2303 250.46 75.1801 250.324 75.1011C248.269 73.9305 245.683 73.6433 243.414 74.3255C242.803 74.5122 242.156 74.1603 241.97 73.5571C241.783 72.9467 242.135 72.3004 242.738 72.1065C245.604 71.2376 248.873 71.6038 251.466 73.0831C251.48 73.0831 251.495 73.0975 251.502 73.1119L251.509 73.119Z" fill="#432E1A"/>
<path d="M244.426 86.0452C244.477 85.9159 244.534 85.7939 244.613 85.6718C245.059 84.968 245.849 84.5659 246.639 84.652C247.02 84.6951 247.357 84.8459 247.63 85.0757C247.91 85.3055 248.119 85.6215 248.248 85.9949C248.557 86.8854 248.521 88.0128 248.162 88.8602C247.788 89.722 246.991 90.2462 246.129 90.1888C246.093 90.1888 246.064 90.1888 246.036 90.1888C245.202 90.0954 244.505 89.4706 244.247 88.5802C243.995 87.6825 244.182 86.6628 244.426 86.0524V86.0452Z" fill="#432E1A"/>
<path d="M240.993 138.662C240.612 138.619 240.274 138.396 240.088 138.037C239.8 137.463 240.023 136.766 240.598 136.479C247.35 133.068 252.177 126.181 254.203 117.104C254.634 115.215 254.928 113.248 255.086 111.237C255.295 111.46 255.503 111.668 255.711 111.855C255.474 113.664 255.244 115.474 255.007 117.291L255.338 117.363C253.47 125.721 248.988 133.535 241.122 137.52L241.108 137.578C241.726 137.779 242.408 137.793 243.083 137.764C242.616 138.044 242.135 138.31 241.646 138.554C241.431 138.662 241.208 138.698 240.993 138.676" fill="#432E1A"/>
<path d="M233.608 93.5568C235.138 96.0343 234.363 99.6465 231.942 101.277C231.705 101.435 231.425 101.492 231.166 101.463C230.836 101.427 230.534 101.255 230.333 100.961C229.974 100.429 230.117 99.7111 230.649 99.3521C232.064 98.397 232.531 96.2067 231.64 94.7633C231.511 94.5622 231.36 94.3611 231.195 94.1385C230.915 93.7794 230.606 93.3629 230.376 92.8674C229.88 91.7974 229.88 90.6556 229.945 89.6861C230.11 87.4241 230.663 85.2266 231.611 83.1512C231.877 82.5624 232.567 82.311 233.141 82.5767C233.73 82.8353 233.982 83.5247 233.723 84.1135C232.89 85.9376 232.402 87.8693 232.258 89.8513C232.208 90.5335 232.2 91.3019 232.473 91.8908C232.596 92.1637 232.811 92.4437 233.041 92.7453C233.235 92.9967 233.429 93.2552 233.608 93.5568Z" fill="#432E1A"/>
<path d="M264.374 40.5954C257.263 31.4178 247.501 22.8148 235.756 24.8255C234.707 24.6675 233.637 24.6603 232.596 24.8039C232.732 24.5095 232.998 24.2797 233.328 24.1864C234.09 23.9781 234.837 23.8058 235.562 23.6909C245.619 21.9602 255.625 27.4179 265.294 39.8917C272.125 48.7102 276.047 60.5376 276.931 75.0437C277.297 80.882 277.017 85.995 276.766 90.4976C276.579 93.9661 276.414 96.9607 276.557 99.7327C276.557 99.7686 276.557 99.7901 276.557 99.826V99.8763C276.6 100.515 276.119 101.061 275.48 101.104C275.415 101.104 275.343 101.104 275.279 101.104C275.264 101.104 275.25 101.104 275.236 101.097C275.286 100.666 275.343 100.228 275.401 99.7973C275.07 93.2409 276.407 85.2913 275.782 75.1227C275.027 62.8428 271.917 50.3331 264.382 40.6098L264.374 40.5954Z" fill="#432E1A"/>
<path d="M231.338 45.9884C239.168 45.0979 243.945 50.649 247.573 56.4012C250.841 61.586 252.4 67.7906 252.73 74.0167L252.055 74.0526C252.048 73.6863 251.847 73.3273 251.509 73.119C251.042 66.9719 249.361 61.4137 246.589 57.0188C243.212 51.6688 238.78 46.3116 231.468 47.1446C230.836 47.2164 230.261 46.7568 230.189 46.1249C230.189 46.0818 230.189 46.0387 230.189 46.0028C230.218 46.01 230.247 46.01 230.268 46.0243L231.346 45.9956L231.338 45.9884Z" fill="#432E1A"/>
<path d="M247.573 56.4012C243.945 50.649 239.161 45.1051 231.338 45.9884L230.261 46.0172C230.261 46.0172 230.203 46.01 230.182 45.9956C230.175 45.4068 230.613 44.9041 231.209 44.8323C239.843 43.8556 245.023 50.1679 248.557 55.7764C252.659 62.2682 254.526 71.0796 253.822 80.566C253.65 82.8424 253.283 85.126 252.931 87.3378C252.206 91.8405 251.524 96.0989 252.342 100.321C252.766 102.526 253.635 104.781 254.921 107.022C255.532 108.099 256.142 108.946 256.76 109.614C256.947 109.815 257.134 109.995 257.32 110.16L257.069 110.425C256.882 110.239 256.631 110.117 256.344 110.088C256.128 110.074 255.92 110.117 255.74 110.21C255.036 109.42 254.44 108.515 253.916 107.596C252.659 105.406 251.689 103.029 251.207 100.544C249.936 93.923 252.17 87.2014 252.673 80.4798C252.831 78.347 252.86 76.1782 252.745 74.0095C252.414 67.7834 250.856 61.5788 247.587 56.394L247.573 56.4012Z" fill="#432E1A"/>
<path d="M231.992 30.355C232.524 30.7069 232.667 31.425 232.315 31.9636C231.037 33.881 230.196 37.8953 230.297 40.2076C230.326 40.8468 229.823 41.3853 229.191 41.4141C229.133 41.4141 229.069 41.4141 229.011 41.4141C228.451 41.3494 228.005 40.8898 227.984 40.3082C227.869 37.5793 228.81 33.0551 230.39 30.6782C230.742 30.1468 231.461 30.0031 231.999 30.355H231.992Z" fill="#303030"/>
<path d="M235.756 24.8254C247.508 22.8075 257.263 31.4178 264.374 40.5953C271.91 50.3187 275.02 62.8355 275.774 75.1082C276.399 85.2768 275.07 93.2264 275.394 99.7829C275.336 100.214 275.279 100.652 275.228 101.083C274.704 101.004 274.28 100.573 274.244 100.02C274.244 99.948 274.23 99.8762 274.237 99.8044C274.093 96.9175 274.266 93.7291 274.453 90.3611C274.697 85.9231 274.97 80.8819 274.618 75.18C273.756 61.1408 269.999 49.7442 263.455 41.2991C254.354 29.5578 245.094 24.3945 235.95 25.96C235.296 26.0678 234.621 26.2257 233.939 26.4053C233.321 26.5776 232.689 26.2114 232.517 25.601C232.437 25.3209 232.473 25.0337 232.588 24.7895C233.637 24.6459 234.707 24.6531 235.749 24.811L235.756 24.8254Z" fill="#432E1A"/>
<path d="M219.17 69.2987C219.752 69.5716 220.003 70.2538 219.737 70.8355C219.464 71.4171 218.782 71.6685 218.2 71.4028C216.045 70.4118 213.452 70.34 211.254 71.2232C211.067 71.2951 210.88 71.3166 210.694 71.2951C210.284 71.252 209.911 70.9863 209.745 70.5769C209.508 69.9809 209.796 69.313 210.392 69.0761C213.172 67.963 216.455 68.0492 219.17 69.3059V69.2987Z" fill="#432E1A"/>
<path d="M218.1 82.9071C218.401 83.8119 218.365 84.9322 218.013 85.7724C217.64 86.6341 216.843 87.1584 215.981 87.1009C215.945 87.1009 215.916 87.1009 215.887 87.1009C215.054 87.0075 214.357 86.3828 214.099 85.4923C213.847 84.5947 214.041 83.5606 214.278 82.9502C214.328 82.8209 214.379 82.7275 214.422 82.6414C214.429 82.627 214.436 82.6127 214.451 82.5911C214.889 81.8802 215.686 81.4708 216.483 81.5642C217.23 81.6504 217.834 82.153 218.092 82.9071H218.1Z" fill="#432E1A"/>
<path d="M207.511 122.246C210.227 125.312 213.696 128.034 217.812 130.339C220.722 131.955 223.394 132.895 225.994 133.19H226.044C231.561 133.808 239.254 131.308 243.974 127.359C244.47 126.949 245.195 127.014 245.612 127.51C246.021 127.998 245.956 128.73 245.461 129.14C240.971 132.895 232.782 136.278 225.793 135.502H225.728C222.819 135.158 219.86 134.138 216.684 132.364C213.057 130.325 209.889 127.976 207.26 125.355C207.289 124.73 207.31 124.099 207.332 123.467C207.339 123.122 207.203 122.813 206.973 122.59L207.454 122.174C207.454 122.174 207.497 122.217 207.519 122.246H207.511Z" fill="#432E1A"/>
<path d="M204.868 137.427C205.558 133.046 205.989 128.623 206.147 124.192C206.506 124.587 206.879 124.975 207.26 125.348C207.073 129.448 206.649 133.563 206.017 137.606" fill="#432E1A"/>
<path d="M206.175 123.431C206.168 123.689 206.161 123.94 206.154 124.192C206.032 124.063 205.902 123.926 205.78 123.79C205.55 123.524 205.32 123.265 205.098 123C205.249 122.612 205.601 122.339 206.017 122.282C206.226 122.533 206.434 122.777 206.649 123.021L206.175 123.438V123.431Z" fill="#432E1A"/>
<path d="M206.973 122.59C207.203 122.813 207.346 123.122 207.332 123.467C207.31 124.091 207.289 124.723 207.26 125.355C206.879 124.975 206.506 124.594 206.147 124.199C206.154 123.94 206.161 123.689 206.168 123.438L206.642 123.021C206.427 122.777 206.218 122.533 206.01 122.282C206.075 122.282 206.132 122.274 206.197 122.282C206.491 122.289 206.764 122.418 206.966 122.598L206.973 122.59Z" fill="#432E1A"/>
<path d="M203.726 137.254C204.451 132.68 204.875 128.019 205.019 123.402C205.019 123.265 205.048 123.129 205.098 123.007C205.32 123.273 205.55 123.531 205.78 123.797C205.902 123.933 206.024 124.07 206.154 124.199C205.996 128.63 205.565 133.053 204.875 137.434" fill="#432E1A"/>
<path d="M224.579 47.1015C221.066 46.7137 216.591 49.7514 214.565 52.904C213.258 54.9291 212.454 56.7818 211.599 58.7423C211.024 60.0708 210.435 61.4352 209.652 62.9361C208.445 65.2484 205.931 69.6218 202.641 72.9826C202.045 73.5858 201.477 74.1101 200.903 74.584C201.276 73.8084 201.578 72.997 201.808 72.1711C204.573 69.3417 206.958 65.5788 208.618 62.3975C210.536 58.7064 211.333 55.7693 213.588 52.272C215.823 48.8107 220.815 45.3924 224.902 45.9741L224.866 46.247C225.269 46.0387 225.707 45.8951 226.159 45.7946C226.174 45.8951 226.181 46.0028 226.159 46.1105C226.087 46.7497 225.506 47.2021 224.873 47.1303H224.823C224.823 47.1303 224.766 47.1159 224.737 47.1159C224.68 47.1159 224.629 47.1015 224.579 47.0944V47.1015Z" fill="#432E1A"/>
<path d="M198.712 102.62C199.164 106.275 199.955 109.93 201.032 113.384C202.052 116.644 203.79 119.625 206.017 122.282C205.601 122.339 205.249 122.619 205.098 123C202.677 120.099 200.939 116.982 199.926 113.736C198.82 110.189 198.022 106.497 197.563 102.763C197.563 102.713 197.548 102.663 197.548 102.62C197.649 102.584 197.735 102.526 197.821 102.454C198.116 102.541 198.417 102.605 198.719 102.627L198.712 102.62Z" fill="#432E1A"/>
<path d="M224.902 45.9741C220.815 45.3924 215.822 48.8106 213.588 52.272C211.333 55.7692 210.543 58.7063 208.618 62.3975C206.958 65.5788 204.573 69.3417 201.808 72.1711C201.578 72.9969 201.269 73.8084 200.903 74.584C200.371 75.022 199.847 75.4098 199.315 75.7545C199.085 75.9053 198.82 75.9628 198.561 75.9341C198.231 75.8982 197.914 75.7186 197.713 75.417C197.369 74.8784 197.519 74.1603 198.058 73.8156C198.992 73.2052 199.976 72.3794 200.982 71.3596C204.063 68.2143 206.441 64.0635 207.59 61.8661C208.33 60.437 208.912 59.1013 209.472 57.8159C210.363 55.7692 211.204 53.8375 212.612 51.6472C215.018 47.9202 220.334 44.3008 224.838 44.8035L225.01 44.8251L225.146 44.8394C225.678 44.8969 226.073 45.299 226.152 45.8017C225.707 45.8951 225.269 46.0459 224.859 46.2541L224.895 45.9812L224.902 45.9741Z" fill="#432E1A"/>
<path d="M197.426 100.451C198.037 100.638 198.381 101.291 198.187 101.901C198.116 102.124 197.986 102.311 197.814 102.447C197.713 102.411 197.606 102.375 197.512 102.332C197.433 101.693 197.369 101.054 197.318 100.408C197.354 100.422 197.397 100.436 197.433 100.451H197.426Z" fill="#432E1A"/>
<path d="M201.032 113.384C199.955 109.923 199.164 106.267 198.712 102.619C198.41 102.598 198.108 102.54 197.814 102.447C197.986 102.311 198.116 102.124 198.187 101.901C198.381 101.291 198.037 100.637 197.426 100.451C197.39 100.436 197.347 100.429 197.311 100.408C197.196 99.0863 197.132 97.7649 197.103 96.4651C197.088 95.826 197.598 95.3018 198.238 95.2874C198.877 95.273 199.401 95.7829 199.416 96.422C199.452 98.4184 199.595 100.451 199.847 102.469C200.292 106.074 201.061 109.621 202.124 113.032C203.122 116.242 204.911 119.316 207.44 122.167L206.958 122.583C206.757 122.396 206.491 122.274 206.19 122.267C206.125 122.267 206.06 122.267 206.003 122.267C203.776 119.61 202.038 116.63 201.018 113.37L201.032 113.384Z" fill="#432E1A"/>
<path d="M197.814 102.447C197.728 102.519 197.642 102.576 197.541 102.612C197.527 102.519 197.512 102.426 197.505 102.332C197.606 102.375 197.706 102.411 197.807 102.447H197.814Z" fill="#432E1A"/>
<path d="M197.814 89.8298C198.13 90.3827 197.936 91.0937 197.383 91.4097C197.16 91.5317 196.916 91.582 196.679 91.5533C196.327 91.5174 195.989 91.3163 195.803 90.9788C195.443 90.354 194.811 89.8442 194.122 89.6215C193.511 89.4276 193.174 88.7813 193.368 88.1637C193.561 87.5533 194.208 87.2158 194.826 87.4097C196.076 87.8047 197.167 88.688 197.821 89.8226L197.814 89.8298Z" fill="#432E1A"/>
<path d="M196.112 79.6252C194.61 79.1153 193.813 79.618 193.353 80.0417C190.99 82.1961 190.753 88.8674 191.428 91.6322C191.902 93.5855 193.339 98.3179 196.456 100.034C196.729 100.192 197.017 100.314 197.318 100.415C197.376 101.061 197.433 101.7 197.512 102.339C196.859 102.074 196.284 101.628 195.896 101.047C192.764 99.3233 191.083 95.1223 190.3 91.9051C189.366 88.0416 189.934 76.2931 196.507 78.5408C196.772 78.3182 197.203 78.3685 197.577 78.3254C197.756 78.3039 197.929 78.2608 198.094 78.189C198.281 78.4978 198.31 78.8855 198.152 79.2374C197.893 79.8263 197.211 80.092 196.629 79.8335C196.456 79.7617 196.284 79.6898 196.119 79.6252H196.112Z" fill="#432E1A"/>
<path d="M196.952 102.706C196.88 102.698 196.808 102.684 196.729 102.663C196.241 102.512 195.767 102.303 195.321 102.059C191.543 99.9767 189.848 94.9714 189.165 92.1779C188.375 88.9033 188.569 81.2553 191.78 78.3326C192.743 77.4565 194.395 76.6019 196.873 77.4421C197.103 77.5211 197.325 77.6144 197.548 77.7078C197.785 77.8155 197.965 77.9807 198.08 78.1889C197.914 78.2608 197.742 78.3038 197.563 78.3254C197.196 78.3685 196.758 78.3254 196.492 78.5408C189.919 76.2931 189.352 88.0416 190.286 91.9051C191.069 95.1222 192.75 99.3232 195.882 101.047C196.277 101.628 196.851 102.066 197.498 102.339C197.505 102.433 197.519 102.526 197.534 102.619C197.354 102.698 197.146 102.734 196.945 102.713L196.952 102.706Z" fill="#432E1A"/>
<path d="M184.173 142.698C181.63 134.001 182.097 124.371 182.284 115.402C182.478 105.901 183.225 96.4149 184.503 86.9932C186.5 72.3507 189.374 57.6149 196.83 44.6528C203.007 33.9169 213.826 22.1253 227.538 26.1253L227.754 26.6854C228.056 26.47 228.372 26.2761 228.695 26.0966C228.695 26.2115 228.688 26.3335 228.652 26.4484C228.472 27.066 227.826 27.4179 227.215 27.2384C212.504 22.9512 201.765 38.398 197.835 45.2345C190.379 58.1966 187.578 73.0401 185.653 87.1512C184.381 96.5011 183.634 106.009 183.44 115.431C183.426 116.156 183.411 116.889 183.39 117.628C183.196 125.951 182.995 134.554 185.286 142.382" fill="#432E1A"/>
<path d="M183.059 143.021C180.675 134.856 180.876 126.073 181.077 117.571C181.091 116.838 181.106 116.106 181.127 115.381C181.328 105.88 182.075 96.2785 183.354 86.8424C185.308 72.4943 188.174 57.3923 195.824 44.0783C200.026 36.7607 211.57 20.2654 227.862 25.0194C228.357 25.163 228.681 25.6082 228.695 26.1037C228.372 26.2833 228.063 26.4843 227.754 26.6926L227.538 26.1325C213.826 22.1325 203 33.9241 196.83 44.66C189.374 57.6221 186.5 72.3579 184.503 87.0004C183.225 96.4149 182.485 105.909 182.284 115.409C182.097 124.379 181.637 134.009 184.173 142.705" fill="#432E1A"/>
<path d="M227.064 119.725C221.009 119.488 218.2 114.957 218.164 109.492C218.164 108.58 218.595 108.171 219.529 108.4C220.283 108.587 221.045 108.738 221.792 108.953C225.829 110.102 229.959 110.662 234.14 110.899C235.878 111 236.108 111.395 235.505 113.047C234.032 117.061 230.649 119.732 227.064 119.725Z" fill="#363636"/>
<path d="M227.057 118.346C223.099 118.368 219.903 115.28 219.658 111.251C219.601 110.361 219.838 109.995 220.75 110.246C224.802 111.337 228.889 112.192 233.091 112.422C233.96 112.472 233.982 112.953 233.723 113.664C232.797 116.213 229.808 118.332 227.05 118.346H227.057Z" fill="#F9F9F9"/>
<path d="M194.158 106.749C193.964 106.706 193.834 106.555 193.842 106.26C193.87 105.578 193.928 104.889 194.028 104.214C194.122 104.12 194.215 103.661 194.15 103.546C194.143 103.531 194.107 103.531 194.079 103.517C194.079 103.086 194.143 102.662 194.179 102.239C194.208 101.894 194.215 101.549 194.28 101.212C194.38 101.183 194.344 101.097 194.352 101.032C194.409 100.566 194.452 100.092 194.524 99.6177C194.625 98.9355 194.768 98.2604 194.718 97.5638C194.675 97.5854 194.704 97.6572 194.646 97.6716C194.589 97.4777 194.646 97.2838 194.668 97.0971C194.725 96.6159 194.804 96.1348 194.869 95.6465C194.905 95.3664 194.998 95.1079 195.185 94.8924C195.479 94.5549 195.867 94.5406 196.262 94.6124C196.586 94.6698 196.801 94.8853 196.894 95.2228C196.952 95.4238 196.974 95.6321 196.952 95.8332C196.844 96.7093 196.729 97.5854 196.607 98.4615C196.499 99.273 196.442 100.092 196.349 100.903C196.262 101.636 196.155 102.361 196.09 103.093C196.083 103.187 196.076 103.266 196.147 103.345C196.212 103.417 196.212 103.524 196.198 103.625C196.119 104.386 196.025 105.147 195.824 105.887C195.803 105.959 195.795 106.038 195.788 106.117C195.745 106.433 195.616 106.691 195.321 106.849C195.278 106.849 195.242 106.849 195.221 106.892C195.206 106.921 195.178 106.928 195.149 106.921C195.127 106.885 195.091 106.878 195.056 106.864C194.768 106.741 194.445 106.864 194.15 106.749H194.158ZM196.435 96.5728C196.435 96.5728 196.456 96.5728 196.471 96.5728C196.492 96.3646 196.528 96.1563 196.514 95.9481C196.507 95.8116 196.356 95.7326 196.277 95.6249L196.27 95.6106C196.27 95.4095 196.083 95.352 195.961 95.2515C195.846 95.1581 195.752 95.2084 195.652 95.2802C195.501 95.3807 195.458 95.5459 195.379 95.6895C195.221 95.9768 195.041 96.2497 195.091 96.6016C195.091 96.6446 195.077 96.6877 195.063 96.7308C194.941 97.0037 195.027 97.413 195.242 97.6213C195.293 97.6716 195.364 97.7218 195.436 97.7003C195.724 97.6285 195.918 97.8152 196.126 97.9444C196.255 98.0234 196.313 98.0091 196.327 97.8511C196.363 97.4274 196.399 96.9965 196.435 96.5728ZM195.918 99.3089C195.932 99.194 195.939 99.1006 195.831 99.0073C195.544 98.7559 195.451 98.7559 195.106 98.9498C194.862 99.0863 194.804 99.3017 194.797 99.5459C194.797 99.5818 194.797 99.6248 194.84 99.6464C194.89 99.6679 194.926 99.6464 194.948 99.5961C194.984 99.4956 195.091 99.4525 195.142 99.3591C195.199 99.2514 195.3 99.2012 195.451 99.2802C195.601 99.3591 195.652 99.4597 195.666 99.6105C195.666 99.6608 195.688 99.7182 195.752 99.7254C195.817 99.7254 195.839 99.6823 195.853 99.6248C195.867 99.5171 195.932 99.4166 195.918 99.3089ZM196.047 103.438L195.982 104.185C196.061 103.941 196.198 103.704 196.047 103.438Z" fill="#E9D181"/>
<path d="M194.653 97.6716C194.704 97.6572 194.682 97.5926 194.725 97.5638C194.775 98.2604 194.625 98.9355 194.531 99.6177C194.467 100.084 194.423 100.558 194.359 101.032C194.352 101.097 194.388 101.183 194.287 101.212C194.287 100.961 194.309 100.716 194.352 100.472C194.359 100.458 194.373 100.436 194.373 100.422C194.452 99.5602 194.596 98.6985 194.639 97.8295C194.639 97.7793 194.653 97.729 194.66 97.6787L194.653 97.6716Z" fill="#D8BC6E"/>
<path d="M194.632 97.8224C194.589 98.6913 194.452 99.5531 194.366 100.415C194.366 100.429 194.352 100.451 194.344 100.465C194.395 99.8188 194.452 99.1725 194.502 98.5261C194.517 98.3466 194.531 98.1671 194.553 97.9804C194.553 97.9157 194.546 97.8439 194.632 97.8224Z" fill="#E9D181"/>
<path d="M194.158 106.749C194.452 106.864 194.768 106.749 195.063 106.864C195.099 106.878 195.135 106.885 195.156 106.921C194.804 106.993 194.459 107 194.158 106.749Z" fill="#D8BC6E"/>
<path d="M194.086 103.517C194.086 103.517 194.143 103.524 194.158 103.546C194.222 103.661 194.129 104.12 194.036 104.214C194.05 103.984 194.036 103.747 194.093 103.517H194.086Z" fill="#D8BC6E"/>
<path d="M195.228 106.893C195.25 106.849 195.286 106.849 195.329 106.849C195.293 106.864 195.264 106.878 195.228 106.893Z" fill="#D8BC6E"/>
<path d="M196.435 96.5728C196.399 96.9965 196.363 97.4274 196.327 97.8511C196.313 98.0019 196.255 98.0234 196.126 97.9444C195.918 97.8152 195.724 97.6285 195.436 97.7003C195.364 97.7218 195.3 97.6716 195.242 97.6213C195.02 97.4202 194.941 97.0109 195.063 96.7308C195.077 96.6877 195.099 96.6447 195.092 96.6016C195.041 96.2497 195.221 95.9696 195.379 95.6895C195.458 95.5459 195.494 95.3808 195.652 95.2802C195.76 95.2084 195.846 95.1581 195.961 95.2515C196.083 95.352 196.262 95.4095 196.27 95.6106C196.27 95.6106 196.27 95.6249 196.277 95.6249C196.356 95.7398 196.507 95.8188 196.514 95.9481C196.528 96.1563 196.485 96.3646 196.471 96.5728C196.456 96.5728 196.449 96.5728 196.435 96.5728Z" fill="#D8BC6E"/>
<path d="M195.918 99.3089C195.932 99.4166 195.867 99.5099 195.853 99.6248C195.846 99.6823 195.817 99.7254 195.752 99.7254C195.688 99.7254 195.673 99.6607 195.666 99.6105C195.652 99.4597 195.601 99.3591 195.451 99.2801C195.3 99.2011 195.199 99.2514 195.142 99.3591C195.091 99.4525 194.991 99.5028 194.948 99.5961C194.926 99.6464 194.89 99.6607 194.84 99.6464C194.797 99.632 194.797 99.5889 194.797 99.5458C194.797 99.2945 194.862 99.0862 195.106 98.9498C195.451 98.7559 195.544 98.7631 195.831 99.0072C195.939 99.1006 195.932 99.194 195.918 99.3089Z" fill="#FEFEFE"/>
<path d="M196.047 103.438C196.198 103.704 196.061 103.941 195.982 104.185L196.047 103.438Z" fill="#D8BC6E"/>
<path d="M183.325 143.639C183.376 143.847 183.419 144.048 183.462 144.256C183.476 144.321 183.605 145.312 183.541 144.615C183.483 143.983 183.541 144.701 183.562 144.823C183.584 145.032 183.598 145.24 183.613 145.455C183.641 145.929 183.641 146.403 183.627 146.877C183.627 147.086 183.613 147.301 183.598 147.509C183.598 147.567 183.469 148.572 183.577 147.883C183.677 147.251 183.555 147.969 183.534 148.091C183.49 148.349 183.433 148.608 183.376 148.867C183.282 149.276 183.174 149.685 183.045 150.087C182.98 150.288 182.916 150.489 182.844 150.683C182.83 150.726 182.442 151.674 182.715 151.042C182.959 150.482 182.672 151.129 182.621 151.236C182.514 151.473 182.406 151.703 182.305 151.94C181.838 152.981 181.35 154.037 181.055 155.143C180.746 156.321 180.617 157.556 180.524 158.769C180.373 160.816 180.315 162.87 180.222 164.916C180.1 167.502 183.11 170.08 185.681 169.074C188.253 168.069 190.422 166.389 192.103 164.04C193.447 162.166 194.309 159.854 194.732 157.599C195.214 155.014 195.321 152.4 195.386 149.779C195.415 148.536 195.451 147.294 195.558 146.051C195.58 145.771 195.616 145.491 195.645 145.211C195.695 144.665 195.494 146.023 195.659 145.19C195.788 144.522 195.925 143.868 196.104 143.215H187.793C188.354 144.701 189.165 145.829 190.3 146.928C190.458 147.078 190.602 147.258 190.76 147.394C191.112 147.696 190.192 146.533 190.652 147.279C191.054 147.933 190.494 146.64 190.616 147.129C190.674 147.351 190.753 147.574 190.803 147.796C190.832 147.933 190.861 148.069 190.882 148.213C190.94 148.543 190.918 148.4 190.825 147.768C190.774 147.797 190.875 148.407 190.875 148.472C190.911 149.096 190.918 149.721 190.904 150.339C190.896 150.913 190.861 151.495 190.817 152.069C190.796 152.342 190.817 152.845 190.71 153.103L190.767 152.644C190.738 152.816 190.717 152.989 190.688 153.154C190.243 155.76 189.338 158.238 189.086 160.888C188.835 163.538 189.682 166.03 190.659 168.414L198.539 165.096C198.417 164.888 198.288 164.68 198.166 164.464C197.009 162.532 194.244 161.649 192.268 162.92C190.293 164.191 189.481 166.748 190.724 168.816C190.846 169.024 190.975 169.232 191.098 169.448C192.204 171.293 194.51 172.04 196.478 171.207C198.259 170.453 199.789 168.119 198.97 166.123C198.525 165.031 198.073 163.94 197.792 162.791C197.749 162.626 197.677 161.764 197.685 162.425C197.685 163.128 197.67 162.101 197.663 162.044C197.656 161.764 197.663 161.491 197.677 161.211C197.735 160.227 197.642 161.197 197.656 161.211C197.534 161.175 198.453 157.944 198.532 157.635C198.899 156.199 199.121 154.748 199.308 153.276C199.624 150.755 199.66 148.141 199.143 145.649C198.827 144.134 198.101 142.77 197.11 141.599C196.823 141.262 196.521 140.96 196.198 140.658C196.083 140.543 195.788 140.163 195.645 140.105L196.004 140.579C195.774 140.184 195.81 140.306 196.104 140.931C195.458 139.201 193.949 137.678 191.945 137.772C189.941 137.865 188.318 139.05 187.786 140.931C186.522 145.448 186.874 150.224 186.5 154.848C186.45 155.466 186.687 153.786 186.5 154.827C186.464 155.042 186.428 155.251 186.385 155.466C186.285 155.997 186.155 156.522 186.005 157.039C185.933 157.29 185.847 157.534 185.76 157.778C185.495 158.532 185.653 157.735 185.847 157.613C185.631 157.75 185.387 158.547 185.236 158.798C185.121 158.992 185.006 159.179 184.884 159.365C184.69 159.66 184.295 159.926 185.006 159.243C184.69 159.545 184.431 159.911 184.115 160.213C183.993 160.328 183.821 160.428 183.728 160.558C184.216 159.918 184.245 160.177 183.864 160.428C183.684 160.55 183.498 160.665 183.304 160.766C183.038 160.909 182.241 161.218 183.383 160.766L188.842 164.924C188.935 162.877 188.993 160.823 189.144 158.777C189.144 158.712 189.165 158.116 189.201 158.109C189.108 158.137 189.036 159.028 189.216 158.094C189.309 157.62 189.431 157.154 189.596 156.694C189.639 156.565 189.833 156.249 189.812 156.12L189.618 156.579C189.682 156.435 189.74 156.299 189.805 156.155C189.991 155.732 190.185 155.315 190.372 154.884C192.233 150.547 192.714 145.965 191.622 141.348C191.105 139.15 188.476 137.642 186.321 138.339C184.029 139.079 182.758 141.29 183.311 143.639H183.325Z" fill="#35251D"/>
<path d="M181.4 124.558C181.486 128.335 181.486 132.12 181.379 135.897C181.328 137.721 181.271 139.56 181.127 141.376C181.091 141.815 181.041 142.26 180.998 142.698C180.94 143.193 180.948 143.136 181.019 142.54C180.983 142.755 180.955 142.978 180.912 143.193C180.768 144.005 180.581 144.809 180.337 145.592C180.229 145.922 180.15 146.389 179.956 146.683C180.193 146.138 180.215 146.08 180.021 146.518C179.935 146.705 179.841 146.892 179.748 147.078C179.367 147.825 178.943 148.543 178.498 149.247C177.6 150.669 176.616 152.026 175.74 153.462C174.727 155.121 173.858 156.924 173.304 158.784C172.651 160.981 172.629 163.128 172.96 165.376C173.111 166.367 174.116 167.466 174.942 167.954C175.869 168.493 177.227 168.723 178.261 168.385C179.295 168.047 180.308 167.401 180.84 166.403C181.414 165.311 181.458 164.299 181.271 163.085C181.458 164.328 181.307 162.956 181.314 162.683C181.314 162.475 181.328 162.274 181.35 162.066C181.249 162.697 181.242 162.776 181.321 162.288C181.493 161.556 181.601 160.522 182.032 159.882C181.802 160.421 181.781 160.471 181.975 160.04C182.061 159.847 182.154 159.66 182.255 159.466C182.449 159.085 182.65 158.719 182.865 158.353C183.232 157.721 183.634 157.103 184.036 156.486C186.033 153.462 188.03 150.504 188.935 146.935C189.84 143.366 189.912 139.452 190.013 135.725C190.113 131.998 190.121 128.285 190.027 124.565C189.977 122.31 188.081 120.149 185.717 120.257C183.354 120.364 181.35 122.152 181.407 124.565L181.4 124.558Z" fill="#35251D"/>
<path d="M256.466 117.614C254.433 126.734 249.706 133.822 243.083 137.75C242.408 137.779 241.725 137.764 241.108 137.563L241.122 137.506C248.988 133.527 253.47 125.707 255.338 117.348L255.007 117.276C255.244 115.467 255.474 113.657 255.711 111.84C256.027 112.12 256.344 112.379 256.674 112.601C256.868 112.738 257.055 112.853 257.256 112.968C257.076 114.555 256.81 116.106 256.473 117.607L256.466 117.614Z" fill="#432E1A"/>
</svg>
